<svg height="20" viewBox="0 0 20 20" width="20" xmlns="http://www.w3.org/2000/svg"><path d="m76.0431691 17.0431691h-2.9657204v-4.6424802c0-1.1067281-.0200011-2.53014054-1.5423079-2.53014054-1.5423079 0-1.7778765 1.20673374-1.7778765 2.45124734v4.7213734h-2.963498v-9.54497476h2.8423802v1.30451692h.0411133c.3966888-.75004167 1.3634091-1.54119673 2.8068226-1.54119673 3.0046114 0 3.5590867 1.97566531 3.5590867 4.54691927zm-12.594033-10.8483805c-.9533863 0-1.7223179-.77115395-1.7223179-1.72120673 0-.94894161.7689316-1.72009557 1.7223179-1.72009557.9478304 0 1.7189844.77115396 1.7189844 1.72009557 0 .95005278-.771154 1.72120673-1.7189844 1.72120673zm-1.4867493 1.30340574h2.970165v9.54497476h-2.970165zm15.557531-7.49819434h-17.0453914c-.8133786 0-1.4745264.64559142-1.4745264 1.44230235v17.11539525c0 .796711.6611478 1.4434136 1.4745264 1.4434136h17.0453914c.8156008 0 1.4800822-.6467026 1.4800822-1.4434136v-17.11539525c0-.79671093-.6644814-1.44230235-1.4800822-1.44230235z" fill="#706e6b" fill-rule="evenodd" transform="translate(-59)"/></svg>