<svg height="16" viewBox="0 0 20 16" width="20" xmlns="http://www.w3.org/2000/svg"><path d="m35.2899155 18c-2.3172025 0-4.4740481-.6686531-6.2899155-1.8146891.3210066.0373034.6476462.0563872.9788215.0563872 1.9223819 0 3.6916493-.6457525 5.0959435-1.7290641-1.7955302-.0326225-3.3108746-1.2004069-3.8329859-2.8051742.2504847.0471694.5075534.0724464.7719376.0724464.3742638 0 .7367497-.0493298 1.0810929-.1416522-1.8771718-.3710178-3.2914883-2.0035827-3.2914883-3.96064416 0-.01699538 0-.03391875.0002926-.0507701.5532755.30253221 1.1859249.48422436 1.8585903.50518053-1.1009913-.72432014-1.8254508-1.96066217-1.8254508-3.36198903 0-.74023531.2023482-1.43409339.5555433-2.03066011 2.0237756 2.44373431 5.0472219 4.05181432 8.4574418 4.22025584-.0699368-.29561883-.1062951-.60391218-.1062951-.92048718 0-2.2306439 1.8372289-4.03913979 4.1033688-4.03913979 1.1801456 0 2.2465343.49056162 2.995062 1.27558984.9346355-.18118805 1.812795-.51735095 2.6055818-.98018705-.3063755.94317169-.9569479 1.73475321-1.8041625 2.2346767.830023-.09765144 1.6208347-.31477464 2.3567065-.63603057-.5501299.81001719-1.2458393 1.52144676-2.047478 2.09093609.0079008.17319447.0118512.34739713.0118512.52253599 0 5.3376302-4.1271443 11.492479-11.6744577 11.492479" fill="#706e6b" fill-rule="evenodd" transform="translate(-29 -2)"/></svg>