<svg height="20" viewBox="0 0 20 20" width="20" xmlns="http://www.w3.org/2000/svg"><path d="m18.8961869 0h-17.79229883c-.6098324 0-1.10388807.49405567-1.10388807 1.10381314v17.79244866c0 .6096076.49405567 1.1038131 1.10388807 1.1038131h9.57874503v-7.7450514h-2.60636283v-3.01843805h2.60636283v-2.2259857c0-2.58328244 1.5777109-3.98991356 3.88223-3.98991356 1.1038131 0 2.0525079.08220523 2.3290982.11892407v2.69965866l-1.5983934.00074936c-1.2532363 0-1.4958804.59551956-1.4958804 1.46942783v1.92713934h2.9889132l-.3892197 3.01843805h-2.5996935v7.7450514h5.0964994c.6096076 0 1.1038131-.4942055 1.1038131-1.1038131v-17.79244866c0-.60975747-.4942055-1.10381314-1.1038131-1.10381314" fill="#706e6b" fill-rule="evenodd" transform=""/></svg>